<?xml version="1.0" encoding="utf-8"?>
<!-- Generator: Adobe Illustrator 16.0.0, SVG Export Plug-In . SVG Version: 6.00 Build 0)  -->
<!DOCTYPE svg PUBLIC "-//W3C//DTD SVG 1.1//EN" "http://www.w3.org/Graphics/SVG/1.1/DTD/svg11.dtd">
<svg version="1.1" id="logo" xmlns="http://www.w3.org/2000/svg" xmlns:xlink="http://www.w3.org/1999/xlink" x="0px" y="0px"
	 width="1190.55px" height="841.891px" viewBox="0 0 1190.55 841.891" enable-background="new 0 0 1190.55 841.891"
	 xml:space="preserve">
<g id="back_1_">
	<rect id="back-plate" y="354.674" fill="#FFFFFF" width="1190.55" height="185.76"/>
</g>
<g id="icon">
	
		<line id="ui-hr" fill="none" stroke="#FFFFFF" stroke-width="2" stroke-miterlimit="10" x1="646.525" y1="299.337" x2="542.243" y2="299.337"/>
	<polygon id="ui-tri" fill="none" stroke="#FFFFFF" stroke-width="2" stroke-miterlimit="10" points="661.408,225.205 
		594.144,341.713 526.876,225.205 	"/>
</g>
<g>
	<path d="M79.914,406.079c24.779,0,42.715,17.345,42.715,41.298c0,23.836-18.054,41.299-43.069,41.299H46.048v-82.597H79.914z
		 M59.972,476.168h20.295c16.047,0,28.319-11.918,28.319-28.673c0-16.874-12.626-28.909-28.909-28.909H59.972V476.168z"/>
	<path d="M147.056,470.032l-7.905,18.644h-14.514l36.461-82.597h14.277l36.106,82.597h-14.867l-7.906-18.644H147.056z
		 M167.824,420.946l-15.575,36.697h31.15L167.824,420.946z"/>
	<path d="M280.394,488.676l-44.013-59.234v59.234h-13.924v-82.597h13.688l44.249,59.352v-59.352h13.688v82.597H280.394z"/>
	<path d="M315.913,488.676v-82.597h13.924v82.597H315.913z"/>
	<path d="M365.471,418.586v22.301h40.354v12.508h-40.354v22.773h46.49v12.508h-60.414v-82.597h58.998v12.507H365.471z"/>
	<path d="M478.631,476.051v12.625h-49.677v-82.597h13.924v69.972H478.631z"/>
	<path d="M565.949,488.676L539.4,409.5l-26.667,79.175h-2.478l-27.966-82.479h2.714l26.55,79.766l26.431-79.766h2.714l26.55,79.766
		l26.431-79.766h2.714l-27.965,82.479H565.949z"/>
	<path d="M608.314,463.543l-11.445,25.133h-2.832l37.759-82.479h2.597l38.23,82.479h-2.714l-11.563-25.133H608.314z M633.093,408.91
		l-23.717,52.272h47.906L633.093,408.91z"/>
	<path d="M710.737,445.018l-19.469,21.121v22.537h-2.36v-82.479h2.36v56.521l52.154-56.521h3.304l-34.337,37.051l36.933,45.429
		h-3.186L710.737,445.018z"/>
	<path d="M770.328,408.556v36.461h43.776v2.359h-43.776v38.938h50.855v2.36h-53.216v-82.479h51.564v2.36H770.328z"/>
	<path d="M846.319,408.556v39.647h40.236v2.359h-40.236v38.113h-2.36v-82.479h48.024v2.36H846.319z"/>
	<path d="M908.269,488.676v-82.479h2.36v82.479H908.269z"/>
	<path d="M943.195,408.556v36.461h43.776v2.359h-43.776v38.938h50.855v2.36h-53.216v-82.479h51.564v2.36H943.195z"/>
	<path d="M1056.12,486.315v2.36h-39.293v-82.479h2.36v80.119H1056.12z"/>
	<path d="M1107.213,406.196c23.245,0,42.242,18.525,42.242,41.299c0,22.655-18.997,41.181-42.242,41.181h-32.449v-82.479H1107.213z
		 M1077.125,486.315h30.089c21.947,0,39.883-17.463,39.883-38.82c0-21.476-17.936-38.939-39.883-38.939h-30.089V486.315z"/>
</g>
<g>
	<path fill="#FFFFFF" d="M125.116,616.445l-11.908-37.172l-12.034,37.172h-5.167l-14.743-44.103h5.418l12.097,38.243l11.971-38.18
		l5.04-0.063l12.097,38.243l11.971-38.243h5.229l-14.806,44.103H125.116z"/>
	<path fill="#FFFFFF" d="M159.638,577.194v14.49h22.24v4.852h-22.24v15.121h25.706v4.788h-30.746v-44.103h29.927v4.852H159.638z"/>
	<path fill="#FFFFFF" d="M217.157,572.343c8.883,0,14.239,4.096,14.239,11.025c0,5.167-2.961,8.884-8.127,9.955
		c6.363,0.944,10.081,5.104,10.081,11.151c0,7.497-5.922,11.971-15.877,11.971h-18.901v-44.103H217.157z M203.611,591.37h13.293
		c5.922,0,9.388-2.583,9.388-7.183c0-4.474-3.465-6.993-9.388-6.993h-13.293V591.37z M203.611,611.657h13.293
		c7.183,0,11.341-2.835,11.341-7.876c0-4.788-4.158-7.623-11.341-7.623h-13.293V611.657z"/>
	<path fill="#FFFFFF" d="M284.691,572.343c12.853,0,22.681,9.514,22.681,22.052c0,12.537-9.892,22.051-22.87,22.051h-17.641v-44.103
		H284.691z M271.902,611.657h12.853c9.829,0,17.515-7.372,17.515-17.2c0-9.892-7.813-17.263-17.704-17.263h-12.664V611.657z"/>
	<path fill="#FFFFFF" d="M324.569,577.194v14.49h22.24v4.852h-22.24v15.121h25.706v4.788h-30.746v-44.103h29.927v4.852H324.569z"/>
	<path fill="#FFFFFF" d="M390.593,576.249l-2.142,4.726c-3.969-2.646-8.632-3.718-12.16-3.718c-5.67,0-9.388,2.143-9.388,5.859
		c0,11.341,24.823,5.419,24.76,21.422c0,7.371-6.489,12.097-15.94,12.097c-6.426,0-12.727-2.772-16.885-6.742l2.268-4.536
		c4.095,3.97,9.703,6.237,14.68,6.237c6.364,0,10.333-2.583,10.333-6.804c0.063-11.593-24.761-5.419-24.761-21.232
		c0-6.931,6.111-11.403,15.247-11.403C381.709,572.154,386.939,573.792,390.593,576.249z"/>
	<path fill="#FFFFFF" d="M404.955,616.445v-44.103h5.041v44.103H404.955z"/>
	<path fill="#FFFFFF" d="M461.531,594.898v16.003c-4.347,3.465-10.458,5.796-16.381,5.796c-12.79,0-22.997-9.892-22.997-22.303
		c0-12.412,10.27-22.178,23.249-22.178c6.111,0,12.034,2.331,16.255,6.049l-2.898,3.779c-3.591-3.213-8.442-5.103-13.356-5.103
		c-10.081,0-18.145,7.749-18.145,17.452c0,9.765,8.127,17.515,18.208,17.515c3.969,0,8.19-1.386,11.593-3.718v-13.293H461.531z"/>
	<path fill="#FFFFFF" d="M508.213,616.445l-26.461-35.408v35.408h-5.041v-44.103h5.229l26.461,35.471v-35.471h4.978v44.103H508.213z
		"/>
	<path fill="#FFFFFF" d="M534.797,577.194v14.49h22.24v4.852h-22.24v15.121h25.706v4.788h-30.746v-44.103h29.927v4.852H534.797z"/>
	<path fill="#FFFFFF" d="M593.45,602.396c-0.945,0.063-1.953,0.126-2.961,0.126h-11.719v13.924h-5.041v-44.103h16.759
		c11.026,0,17.389,5.418,17.389,14.806c0,7.309-3.528,12.223-9.893,14.302l10.333,14.995h-5.733L593.45,602.396z M590.489,597.67
		c8.001,0,12.538-3.528,12.538-10.396c0-6.678-4.536-10.08-12.538-10.08h-11.719v20.476H590.489z"/>
	<path fill="#FFFFFF" d="M666.214,609.956c-4.033,4.284-8.695,6.741-13.672,6.741c-7.309,0-13.105-5.166-13.105-12.097
		c0-6.427,4.852-9.766,10.018-12.538c-3.023-3.906-4.535-7.182-4.535-10.396c0-5.544,4.347-9.513,10.773-9.513
		c6.111,0,10.206,3.653,10.206,8.883c0,5.985-5.419,9.072-10.899,11.971c2.709,3.15,6.301,6.805,10.711,11.151
		c1.701-2.394,3.213-5.292,4.535-8.568l3.34,2.583c-1.449,3.34-3.088,6.301-4.978,8.821l7.624,7.497l-2.646,2.772L666.214,609.956z
		 M663.378,607.121c-4.852-4.852-8.82-8.884-11.781-12.349c-4.348,2.394-8.002,5.04-8.002,9.45c0,4.978,4.033,8.442,9.136,8.442
		C656.511,612.665,660.166,610.649,663.378,607.121z M652.794,590.362c4.852-2.521,9.072-4.915,9.072-9.325
		c0-3.276-2.395-5.481-6.174-5.481c-4.096,0-6.742,2.646-6.742,6.049C648.951,584.188,650.274,586.96,652.794,590.362z"/>
	<path fill="#FFFFFF" d="M724.361,572.343c12.854,0,22.682,9.514,22.682,22.052c0,12.537-9.892,22.051-22.871,22.051h-17.641
		v-44.103H724.361z M711.572,611.657h12.852c9.829,0,17.516-7.372,17.516-17.2c0-9.892-7.813-17.263-17.704-17.263h-12.663V611.657z
		"/>
	<path fill="#FFFFFF" d="M764.239,577.194v14.49h22.24v4.852h-22.24v15.121h25.706v4.788h-30.746v-44.103h29.926v4.852H764.239z"/>
	<path fill="#FFFFFF" d="M814.763,616.445l-17.893-44.103h5.418l15.184,38.243l15.248-38.243h5.292l-18.019,44.103H814.763z"/>
	<path fill="#FFFFFF" d="M853.068,577.194v14.49h22.24v4.852h-22.24v15.121h25.705v4.788h-30.746v-44.103h29.927v4.852H853.068z"/>
	<path fill="#FFFFFF" d="M916.382,611.657v4.788H892v-44.103h5.041v39.314H916.382z"/>
	<path fill="#FFFFFF" d="M969.555,594.395c0,12.411-10.206,22.303-23.06,22.303c-12.916,0-23.122-9.892-23.122-22.303
		c0-12.476,10.206-22.178,23.122-22.178C959.349,572.217,969.555,581.982,969.555,594.395z M928.477,594.395
		c0,9.702,8.19,17.451,18.019,17.451c9.829,0,17.894-7.749,17.894-17.451c0-9.703-8.064-17.39-17.894-17.39
		C936.667,577.005,928.477,584.691,928.477,594.395z"/>
	<path fill="#FFFFFF" d="M998.281,572.343c10.899,0,17.2,5.418,17.2,14.806c0,9.766-6.301,15.373-17.2,15.373h-11.529v13.924h-5.04
		v-44.103H998.281z M986.751,597.67h11.341c7.938,0,12.537-3.528,12.537-10.396c0-6.678-4.599-10.08-12.537-10.08h-11.341V597.67z"
		/>
	<path fill="#FFFFFF" d="M1031.859,577.194v14.49h22.24v4.852h-22.24v15.121h25.705v4.788h-30.745v-44.103h29.927v4.852H1031.859z"
		/>
	<path fill="#FFFFFF" d="M1090.511,602.396c-0.945,0.063-1.953,0.126-2.961,0.126h-11.719v13.924h-5.04v-44.103h16.759
		c11.025,0,17.389,5.418,17.389,14.806c0,7.309-3.528,12.223-9.892,14.302l10.333,14.995h-5.733L1090.511,602.396z M1087.55,597.67
		c8.001,0,12.537-3.528,12.537-10.396c0-6.678-4.536-10.08-12.537-10.08h-11.719v20.476H1087.55z"/>
</g>
</svg>
